<svg class="diagram-root" style="background: #f5f6f6" xmlns="http://www.w3.org/2000/svg" xmlns:xlink="http://www.w3.org/1999/xlink"><style>.diagram-root { font-family: "Helvetica Neue", sans-serif; font-size: 12px; } .t { overflow: visible; } .t-bg { y: 40; fill: #fff;   } .th { fill: #005aa0;   } .tht { fill: #fff; font-size: 14px;  } .tf { fill: #323c46; overflow: visible; } .tf.pk { fill: #005aa0; font-weight: bold; } .tf.fk { font-weight: bold; } .ty { fill: #adb1b5; font-weight: normal; text-anchor: end; } .r { fill: transparent; stroke: #c3c3c3; stroke-width: 1; } .l { stroke: 1; } .i { fill: #c2c7ce; stroke: #c2c7ce; } .i.ix { fill: #afb3b6; stroke: #000; } .fa { fill: transparent; overflow: visible; } .fa .bg.hover { fill: #f7f7f7; } .c { cy: 12; r: 4; stroke: #d2d2dc; fill: #d2d2dc; } .hr { fill: transparent; stroke: #323c46; stroke-opacity: 0.035; stroke-width: 13; } .dc { stroke: #fa5a3c; fill: #fa5a3c; } .x { stroke: white; stroke-width: 1; } .hl .th { fill: #1b9bff; } .hl .tht {  } .fhl .bg { fill: #e7f4ff; } .fhls .bg {  } .r.hl { stroke: #1b9bff; } .dim { opacity: 0.25; }</style><g class="drawing-wrapper" transform="translate(2, 18) scale(1,1)"><g class="rs"><path d="M 168.74 237 m -1, 0 a 1,1 0 1,0 2,0 a 1,1 0 1,0 -2,0 M 168.74 237 m -0.5, 0 a 0.5,0.5 0 1,0 1,0 a 0.5,0.5 0 1,0 -1,0  M168.74 237 L168.74 237 180.74 237 M 168.74 243 m -1, 0 a 1,1 0 1,0 2,0 a 1,1 0 1,0 -2,0 M 168.74 243 m -0.5, 0 a 0.5,0.5 0 1,0 1,0 a 0.5,0.5 0 1,0 -1,0  M168.74 243 L168.74 243 175.74 237 168.74 231 M 168.74 231 m -1, 0 a 1,1 0 1,0 2,0 a 1,1 0 1,0 -2,0 M 168.74 231 m -0.5, 0 a 0.5,0.5 0 1,0 1,0 a 0.5,0.5 0 1,0 -1,0  M180.74 237 Q 210.06 237, 239.37 186 T 298 135 M 310 135 m -1, 0 a 1,1 0 1,0 2,0 a 1,1 0 1,0 -2,0 M 310 135 m -0.5, 0 a 0.5,0.5 0 1,0 1,0 a 0.5,0.5 0 1,0 -1,0  M310 135 L310 135 298 135 M304 141 L304 141 304 129" id="h1959980001" class="r"></path><path d="M 313 263 m -1, 0 a 1,1 0 1,0 2,0 a 1,1 0 1,0 -2,0 M 313 263 m -0.5, 0 a 0.5,0.5 0 1,0 1,0 a 0.5,0.5 0 1,0 -1,0  M313 263 L313 263 301 263 M 313 269 m -1, 0 a 1,1 0 1,0 2,0 a 1,1 0 1,0 -2,0 M 313 269 m -0.5, 0 a 0.5,0.5 0 1,0 1,0 a 0.5,0.5 0 1,0 -1,0  M313 269 L313 269 306 263 313 257 M 313 257 m -1, 0 a 1,1 0 1,0 2,0 a 1,1 0 1,0 -2,0 M 313 257 m -0.5, 0 a 0.5,0.5 0 1,0 1,0 a 0.5,0.5 0 1,0 -1,0  M301 263 Q 270.94 263, 240.87 262.5 T 180.74 262 M 168.74 262 m -1, 0 a 1,1 0 1,0 2,0 a 1,1 0 1,0 -2,0 M 168.74 262 m -0.5, 0 a 0.5,0.5 0 1,0 1,0 a 0.5,0.5 0 1,0 -1,0  M168.74 262 L168.74 262 180.74 262 M174.74 268 L174.74 268 174.74 256" id="h4066167310" class="r"></path><path d="M 451.39 387 m -1, 0 a 1,1 0 1,0 2,0 a 1,1 0 1,0 -2,0 M 451.39 387 m -0.5, 0 a 0.5,0.5 0 1,0 1,0 a 0.5,0.5 0 1,0 -1,0  M451.39 387 L451.39 387 463.39 387 M 451.39 393 m -1, 0 a 1,1 0 1,0 2,0 a 1,1 0 1,0 -2,0 M 451.39 393 m -0.5, 0 a 0.5,0.5 0 1,0 1,0 a 0.5,0.5 0 1,0 -1,0  M451.39 393 L451.39 393 458.39 387 451.39 381 M 451.39 381 m -1, 0 a 1,1 0 1,0 2,0 a 1,1 0 1,0 -2,0 M 451.39 381 m -0.5, 0 a 0.5,0.5 0 1,0 1,0 a 0.5,0.5 0 1,0 -1,0  M463.39 387 C 513.39 387, 516.192 583, 458.72 583 M 446.72 583 m -1, 0 a 1,1 0 1,0 2,0 a 1,1 0 1,0 -2,0 M 446.72 583 m -0.5, 0 a 0.5,0.5 0 1,0 1,0 a 0.5,0.5 0 1,0 -1,0  M446.72 583 L446.72 583 458.72 583 M452.72 589 L452.72 589 452.72 577" id="h1095587650" class="r"></path><path d="M 300 533 m -1, 0 a 1,1 0 1,0 2,0 a 1,1 0 1,0 -2,0 M 300 533 m -0.5, 0 a 0.5,0.5 0 1,0 1,0 a 0.5,0.5 0 1,0 -1,0  M300 533 L300 533 288 533 M 300 539 m -1, 0 a 1,1 0 1,0 2,0 a 1,1 0 1,0 -2,0 M 300 539 m -0.5, 0 a 0.5,0.5 0 1,0 1,0 a 0.5,0.5 0 1,0 -1,0  M300 539 L300 539 293 533 300 527 M 300 527 m -1, 0 a 1,1 0 1,0 2,0 a 1,1 0 1,0 -2,0 M 300 527 m -0.5, 0 a 0.5,0.5 0 1,0 1,0 a 0.5,0.5 0 1,0 -1,0  M288 533 Q 266.93 533, 245.85 452.5 T 203.7 372 M 191.7 372 m -1, 0 a 1,1 0 1,0 2,0 a 1,1 0 1,0 -2,0 M 191.7 372 m -0.5, 0 a 0.5,0.5 0 1,0 1,0 a 0.5,0.5 0 1,0 -1,0  M191.7 372 L191.7 372 203.7 372 M197.7 378 L197.7 378 197.7 366" id="h3750219334" class="r"></path><path d="M 300 558 m -1, 0 a 1,1 0 1,0 2,0 a 1,1 0 1,0 -2,0 M 300 558 m -0.5, 0 a 0.5,0.5 0 1,0 1,0 a 0.5,0.5 0 1,0 -1,0  M300 558 L300 558 288 558 M 300 564 m -1, 0 a 1,1 0 1,0 2,0 a 1,1 0 1,0 -2,0 M 300 564 m -0.5, 0 a 0.5,0.5 0 1,0 1,0 a 0.5,0.5 0 1,0 -1,0  M300 564 L300 564 293 558 300 552 M 300 552 m -1, 0 a 1,1 0 1,0 2,0 a 1,1 0 1,0 -2,0 M 300 552 m -0.5, 0 a 0.5,0.5 0 1,0 1,0 a 0.5,0.5 0 1,0 -1,0  M288 558 Q 266.93 558, 245.85 465 T 203.7 372 M 191.7 372 m -1, 0 a 1,1 0 1,0 2,0 a 1,1 0 1,0 -2,0 M 191.7 372 m -0.5, 0 a 0.5,0.5 0 1,0 1,0 a 0.5,0.5 0 1,0 -1,0  M191.7 372 L191.7 372 203.7 372 M197.7 378 L197.7 378 197.7 366" id="h3773101666" class="r"></path></g><g class="hrs"></g><g class="ts"><svg width="138.74" height="250" x="30" y="30" id="h907613820" class="t"><rect height="40" width="138.74" class="th"></rect><text x="13" y="25" class="tht">films</text><rect height="210" width="138.74" class="t-bg"></rect><text x="13" y="61" class="tf pk">film_id<tspan x="125.74000000000001" class="ty">int</tspan></text><path d="M7,14A2,2 0 0,1 5,12A2,2 0 0,1 7,10A2,2 0 0,1 9,12A2,2 0 0,1 7,14M12.65,10C11.83,7.67 9.61,6 7, 6A6, 6 0 0, 0 1, 12A6, 6 0 0, 0 7, 18C9.61, 18 11.83, 16.33 12.65, 14H17V18H21V14H23V10H12.65Z" class="i pk" transform="translate(93.06617187500001, 48) scale(0.65)"></path><text x="13" y="86" class="tf">name<tspan x="125.74000000000001" class="ty">string</tspan></text><path d="M814.545 581.818v-23.273H535.273v-93.09h-46.546v93.09H209.455v139.637H256V605.09h232.727v93.09h46.546v-93.09H768v93.09h46.545V581.819zM674.91 465.455H349.091V139.636h325.818v325.819zM325.82 884.364H139.635V698.182h186.182v186.182z m279.272 0H418.909V698.182h186.182v186.182z m279.273 0H698.182V698.182h186.182v186.182zM395.636 418.909h232.728V186.182H395.636v232.727zM186.182 837.82h93.09v-93.092h-93.09v93.091z m279.273 0h93.09v-93.092h-93.09v93.091z m279.272 0h93.091v-93.092h-93.09v93.091z" class="i ix" transform="translate(81.39625000000001, 75) scale(0.014)"></path><text x="13" y="111" class="tf">description<tspan x="125.74000000000001" class="ty">string</tspan></text><text x="13" y="136" class="tf">release_date<tspan x="125.74000000000001" class="ty">date</tspan></text><text x="13" y="161" class="tf">duration<tspan x="125.74000000000001" class="ty">int</tspan></text><text x="13" y="186" class="tf">likes<tspan x="125.74000000000001" class="ty">int</tspan></text><text x="13" y="211" class="tf fk">genre_id<tspan x="125.74000000000001" class="ty">int</tspan></text><text x="13" y="236" class="tf fk">rating_id<tspan x="125.74000000000001" class="ty">int</tspan></text></svg><svg width="124.71" height="100" x="313" y="206" id="h1129032390" class="t"><rect height="40" width="124.71" class="th"></rect><text x="13" y="25" class="tht">ratings</text><rect height="60" width="124.71" class="t-bg"></rect><text x="13" y="61" class="tf pk">rating_id<tspan x="111.71" class="ty">int</tspan></text><path d="M7,14A2,2 0 0,1 5,12A2,2 0 0,1 7,10A2,2 0 0,1 9,12A2,2 0 0,1 7,14M12.65,10C11.83,7.67 9.61,6 7, 6A6, 6 0 0, 0 1, 12A6, 6 0 0, 0 7, 18C9.61, 18 11.83, 16.33 12.65, 14H17V18H21V14H23V10H12.65Z" class="i pk" transform="translate(79.036171875, 48) scale(0.65)"></path><text x="13" y="86" class="tf">rating<tspan x="111.71" class="ty">int</tspan></text></svg><svg width="125.38" height="100" x="310" y="78" id="h1632618054" class="t"><rect height="40" width="125.38" class="th"></rect><text x="13" y="25" class="tht">genres</text><rect height="60" width="125.38" class="t-bg"></rect><text x="13" y="61" class="tf pk">genre_id<tspan x="112.38" class="ty">int</tspan></text><path d="M7,14A2,2 0 0,1 5,12A2,2 0 0,1 7,10A2,2 0 0,1 9,12A2,2 0 0,1 7,14M12.65,10C11.83,7.67 9.61,6 7, 6A6, 6 0 0, 0 1, 12A6, 6 0 0, 0 7, 18C9.61, 18 11.83, 16.33 12.65, 14H17V18H21V14H23V10H12.65Z" class="i pk" transform="translate(79.706171875, 48) scale(0.65)"></path><text x="13" y="86" class="tf">name<tspan x="112.38" class="ty">String</tspan></text></svg><svg width="158.7" height="200" x="33" y="315" id="h2948373614" class="t"><rect height="40" width="158.7" class="th"></rect><text x="13" y="25" class="tht">users</text><rect height="160" width="158.7" class="t-bg"></rect><text x="13" y="61" class="tf pk">user_id<tspan x="145.7" class="ty">int</tspan></text><path d="M7,14A2,2 0 0,1 5,12A2,2 0 0,1 7,10A2,2 0 0,1 9,12A2,2 0 0,1 7,14M12.65,10C11.83,7.67 9.61,6 7, 6A6, 6 0 0, 0 1, 12A6, 6 0 0, 0 7, 18C9.61, 18 11.83, 16.33 12.65, 14H17V18H21V14H23V10H12.65Z" class="i pk" transform="translate(113.02617187499999, 48) scale(0.65)"></path><text x="13" y="86" class="tf">email<tspan x="145.7" class="ty">varchar(200)</tspan></text><path d="M22,18V22H18V19H15V16H12L9.74,13.74C9.19,13.91 8.61,14 8,14A6,6 0 0,1 2,8A6,6 0 0,1 8,2A6,6 0 0,1 14,8C14,8.61 13.91, 9.19 13.74, 9.74L22, 18M7, 5A2, 2 0 0, 0 5, 7A2, 2 0 0, 0 7, 9A2, 2 0 0, 0 9, 7A2, 2 0 0, 0 7, 5Z" class="i uq" transform="translate(61.67265624999999, 75.5) scale(0.5)"></path><text x="13" y="111" class="tf">login<tspan x="145.7" class="ty">varchar(200)</tspan></text><path d="M22,18V22H18V19H15V16H12L9.74,13.74C9.19,13.91 8.61,14 8,14A6,6 0 0,1 2,8A6,6 0 0,1 8,2A6,6 0 0,1 14,8C14,8.61 13.91, 9.19 13.74, 9.74L22, 18M7, 5A2, 2 0 0, 0 5, 7A2, 2 0 0, 0 7, 9A2, 2 0 0, 0 9, 7A2, 2 0 0, 0 7, 5Z" class="i uq" transform="translate(61.67265624999999, 100.5) scale(0.5)"></path><text x="13" y="136" class="tf">name<tspan x="145.7" class="ty">string</tspan></text><text x="13" y="161" class="tf">birthday<tspan x="145.7" class="ty">date</tspan></text><text x="13" y="186" class="tf">friends<tspan x="145.7" class="ty">int</tspan></text></svg><svg width="163.39" height="100" x="288" y="330" id="h1756404015" class="t"><rect height="40" width="163.39" class="th"></rect><text x="13" y="25" class="tht">friend_status</text><rect height="60" width="163.39" class="t-bg"></rect><text x="13" y="61" class="tf pk">friend_status_id<tspan x="150.39" class="ty">int</tspan></text><path d="M7,14A2,2 0 0,1 5,12A2,2 0 0,1 7,10A2,2 0 0,1 9,12A2,2 0 0,1 7,14M12.65,10C11.83,7.67 9.61,6 7, 6A6, 6 0 0, 0 1, 12A6, 6 0 0, 0 7, 18C9.61, 18 11.83, 16.33 12.65, 14H17V18H21V14H23V10H12.65Z" class="i pk" transform="translate(117.71617187499999, 48) scale(0.65)"></path><text x="13" y="86" class="tf">value<tspan x="150.39" class="ty">string</tspan></text></svg><svg width="146.72" height="150" x="300" y="451" id="h1476665440" class="t"><rect height="40" width="146.72" class="th"></rect><text x="13" y="25" class="tht">friendship</text><rect height="110" width="146.72" class="t-bg"></rect><text x="13" y="61" class="tf pk">friendship_id<tspan x="133.72" class="ty">int</tspan></text><path d="M7,14A2,2 0 0,1 5,12A2,2 0 0,1 7,10A2,2 0 0,1 9,12A2,2 0 0,1 7,14M12.65,10C11.83,7.67 9.61,6 7, 6A6, 6 0 0, 0 1, 12A6, 6 0 0, 0 7, 18C9.61, 18 11.83, 16.33 12.65, 14H17V18H21V14H23V10H12.65Z" class="i pk" transform="translate(101.046171875, 48) scale(0.65)"></path><text x="13" y="86" class="tf fk">user_id<tspan x="133.72" class="ty">int</tspan></text><text x="13" y="111" class="tf fk">friend_id<tspan x="133.72" class="ty">int</tspan></text><text x="13" y="136" class="tf fk">friend_status_id<tspan x="133.72" class="ty">int</tspan></text></svg></g></g><text class="qdbd-link" x="10" y="20">www.quickdatabasediagrams.com</text></svg>